<svg width="20" height="20" viewBox="0 0 20 20" fill="none" xmlns="http://www.w3.org/2000/svg">
<path d="M13.6254 0.0832405C13.458 0.129751 13.2022 0.236731 13.058 0.320452C12.6719 0.557665 0.439215 12.8183 0.26712 13.1439C-0.0817218 13.809 -0.086373 14.6788 0.253166 15.3718C0.402006 15.6695 0.583403 15.8648 2.40668 17.6788C4.20671 19.4695 4.42531 19.6695 4.68113 19.7812C4.83927 19.8509 5.07649 19.93 5.21137 19.9533C5.36951 19.9812 7.87652 19.9998 12.0812 19.9998C19.3604 19.9998 18.8999 20.0184 19.1325 19.7114C19.4069 19.3533 19.2953 18.8695 18.886 18.6649L18.6813 18.5579H13.4208H8.1649L13.8906 12.8276C18.2674 8.43684 19.6441 7.03682 19.7371 6.85542C20.0674 6.21821 20.086 5.37168 19.7837 4.67865C19.672 4.42283 19.472 4.20423 17.6813 2.4042C15.8673 0.580921 15.672 0.399523 15.3743 0.250685C14.8394 -0.0097847 14.2208 -0.0702515 13.6254 0.0832405ZM14.7371 1.52977C14.951 1.6414 18.3836 5.08331 18.486 5.28796C18.5836 5.48331 18.5836 5.95774 18.486 6.15309C18.4069 6.31123 12.9417 11.8136 12.8626 11.8136C12.8022 11.8136 8.18815 7.19961 8.18815 7.13915C8.18815 7.06473 13.6347 1.64605 13.8161 1.53907C14.0347 1.40884 14.4952 1.40419 14.7371 1.52977ZM9.4998 10.4973C10.7742 11.7718 11.8161 12.8322 11.8161 12.8602C11.8161 12.9392 6.31371 18.4044 6.15557 18.4835C5.94626 18.5905 5.48579 18.5812 5.26719 18.4695C5.05323 18.3579 1.62063 14.916 1.5183 14.7113C1.42062 14.516 1.42062 14.0416 1.5183 13.8462C1.59737 13.6881 7.06256 8.18567 7.14163 8.18567C7.16489 8.18567 8.23001 9.22755 9.4998 10.4973Z" fill="#9998A5"/>
</svg>
