<svg width="21" height="21" viewBox="0 0 21 21" fill="none" xmlns="http://www.w3.org/2000/svg">
<path d="M19.8962 5.06531H6.47833C5.9454 5.06531 5.51343 4.63334 5.51343 4.1004C5.51343 3.56747 5.9454 3.1355 6.47833 3.1355H19.8962C20.4291 3.1355 20.8611 3.56747 20.8611 4.1004C20.8611 4.63334 20.4291 5.06531 19.8962 5.06531Z" fill="white"/>
<path d="M19.8962 11.453H6.47833C5.9454 11.453 5.51343 11.021 5.51343 10.4881C5.51343 9.95517 5.9454 9.52319 6.47833 9.52319H19.8962C20.4291 9.52319 20.8611 9.95517 20.8611 10.4881C20.8611 11.021 20.4291 11.453 19.8962 11.453Z" fill="white"/>
<path d="M19.8962 17.8407H6.47833C5.9454 17.8407 5.51343 17.4087 5.51343 16.8758C5.51343 16.3429 5.9454 15.9109 6.47833 15.9109H19.8962C20.4291 15.9109 20.8611 16.3429 20.8611 16.8758C20.8611 17.4087 20.4291 17.8407 19.8962 17.8407Z" fill="white"/>
<path d="M1.85766 5.84251C2.81983 5.84251 3.59983 5.06251 3.59983 4.10033C3.59983 3.13815 2.81983 2.35815 1.85766 2.35815C0.895478 2.35815 0.115479 3.13815 0.115479 4.10033C0.115479 5.06251 0.895478 5.84251 1.85766 5.84251Z" fill="white"/>
<path d="M1.85766 12.23C2.81983 12.23 3.59983 11.45 3.59983 10.4878C3.59983 9.52561 2.81983 8.74561 1.85766 8.74561C0.895478 8.74561 0.115479 9.52561 0.115479 10.4878C0.115479 11.45 0.895478 12.23 1.85766 12.23Z" fill="white"/>
<path d="M1.85766 18.6172C2.81983 18.6172 3.59983 17.8372 3.59983 16.875C3.59983 15.9128 2.81983 15.1328 1.85766 15.1328C0.895478 15.1328 0.115479 15.9128 0.115479 16.875C0.115479 17.8372 0.895478 18.6172 1.85766 18.6172Z" fill="white"/>
</svg>
