<svg width="52" height="50" viewBox="0 0 52 50" fill="none" xmlns="http://www.w3.org/2000/svg">
<path fill-rule="evenodd" clip-rule="evenodd" d="M8.66667 6.5H16.25C17.4417 6.5 18.4167 7.475 18.4167 8.66667C18.4167 11.375 18.85 13.975 19.6517 16.4017C19.89 17.16 19.7167 18.005 19.11 18.6117L14.3433 23.3783C17.4633 29.51 22.49 34.515 28.6217 37.6567L33.3883 32.89C33.8217 32.4783 34.3633 32.2617 34.9267 32.2617C35.1433 32.2617 35.3817 32.2833 35.5983 32.37C38.025 33.1717 40.6467 33.605 43.3333 33.605C44.525 33.605 45.5 34.58 45.5 35.7717V43.3333C45.5 44.525 44.525 45.5 43.3333 45.5C22.9883 45.5 6.5 29.0117 6.5 8.66667C6.5 7.475 7.475 6.5 8.66667 6.5ZM14.17 10.8333C14.3 12.7617 14.625 14.6467 15.145 16.445L12.545 19.045C11.6567 16.445 11.0933 13.6933 10.8983 10.8333H14.17ZM35.5333 36.8767C37.375 37.3967 39.26 37.7217 41.1667 37.8517V41.08C38.3067 40.885 35.555 40.3217 32.9333 39.455L35.5333 36.8767Z" fill="#03602B"/>
</svg>
