<svg width="52" height="52" viewBox="0 0 52 52" fill="none" xmlns="http://www.w3.org/2000/svg">
<path fill-rule="evenodd" clip-rule="evenodd" d="M26 4.33331C17.615 4.33331 10.8333 11.115 10.8333 19.5C10.8333 30.875 26 47.6666 26 47.6666C26 47.6666 41.1666 30.875 41.1666 19.5C41.1666 11.115 34.385 4.33331 26 4.33331ZM15.1666 19.5C15.1666 13.52 20.02 8.66665 26 8.66665C31.98 8.66665 36.8333 13.52 36.8333 19.5C36.8333 25.74 30.5933 35.0783 26 40.9066C21.4933 35.1216 15.1666 25.675 15.1666 19.5ZM20.5833 19.5C20.5833 16.5084 23.0084 14.0833 26 14.0833C27.9352 14.0833 29.7234 15.1157 30.691 16.7916C31.6585 18.4676 31.6585 20.5324 30.691 22.2083C29.7234 23.8842 27.9352 24.9166 26 24.9166C23.0084 24.9166 20.5833 22.4915 20.5833 19.5Z" fill="#03602B"/>
</svg>
