<svg width="22" height="22" viewBox="0 0 22 22" fill="none" xmlns="http://www.w3.org/2000/svg">
<path d="M16.1955 14.3096C15.8932 14.0067 15.4828 13.8365 15.0548 13.8365C14.8461 13.8365 14.6456 13.7556 14.4955 13.6107L14.3774 13.4969C15.6101 12.0629 16.3522 10.2013 16.3522 8.1761C16.3522 3.66038 12.6918 0 8.1761 0C3.66038 0 0 3.66038 0 8.1761C0 12.6918 3.66038 16.3522 8.1761 16.3522C10.2013 16.3522 12.0629 15.6101 13.4969 14.3774L13.6107 14.4955C13.7556 14.6456 13.8365 14.8461 13.8365 15.0548C13.8365 15.4828 14.0067 15.8932 14.3096 16.1955L19.1877 21.0638C19.706 21.581 20.5452 21.5806 21.0629 21.0629C21.5806 20.5452 21.581 19.706 21.0638 19.1877L16.1955 14.3096ZM8.1761 13.8365C5.04403 13.8365 2.51572 11.3082 2.51572 8.1761C2.51572 5.04403 5.04403 2.51572 8.1761 2.51572C11.3082 2.51572 13.8365 5.04403 13.8365 8.1761C13.8365 11.3082 11.3082 13.8365 8.1761 13.8365Z" fill="#9998A5"/>
</svg>
